<svg width="144" height="39" viewBox="0 0 144 39" fill="none" xmlns="http://www.w3.org/2000/svg">
<path d="M11.52 7.296C13.28 7.488 14.688 7.8 15.744 8.232C16.816 8.664 17.592 9.232 18.072 9.936C18.552 10.64 18.792 11.52 18.792 12.576C18.792 13.728 18.416 14.736 17.664 15.6C16.928 16.448 15.904 17.104 14.592 17.568C13.28 18.016 11.784 18.24 10.104 18.24C8.232 18.24 6.648 18.008 5.352 17.544C4.056 17.08 3.088 16.464 2.448 15.696C1.808 14.912 1.488 14.056 1.488 13.128C1.488 12.968 1.536 12.84 1.632 12.744C1.744 12.648 1.88 12.6 2.04 12.6H6.96C7.296 12.6 7.568 12.704 7.776 12.912C8.048 13.168 8.352 13.344 8.688 13.44C9.024 13.52 9.496 13.56 10.104 13.56C11.624 13.56 12.384 13.328 12.384 12.864C12.384 12.672 12.28 12.512 12.072 12.384C11.88 12.24 11.528 12.12 11.016 12.024C10.52 11.912 9.784 11.8 8.808 11.688C6.616 11.432 4.936 10.888 3.768 10.056C2.6 9.208 2.016 8.016 2.016 6.48C2.016 5.392 2.344 4.432 3 3.6C3.656 2.768 4.584 2.12 5.784 1.656C7 1.192 8.408 0.959999 10.008 0.959999C11.672 0.959999 13.128 1.224 14.376 1.752C15.624 2.264 16.576 2.904 17.232 3.672C17.888 4.44 18.216 5.192 18.216 5.928C18.216 6.088 18.16 6.216 18.048 6.312C17.952 6.408 17.816 6.456 17.64 6.456H12.48C12.208 6.456 11.96 6.36 11.736 6.168C11.56 6.008 11.352 5.88 11.112 5.784C10.872 5.688 10.504 5.64 10.008 5.64C8.936 5.64 8.4 5.864 8.4 6.312C8.4 6.552 8.608 6.744 9.024 6.888C9.44 7.016 10.272 7.152 11.52 7.296ZM29.1986 1.2C30.7026 1.2 32.0146 1.456 33.1346 1.968C34.2546 2.48 35.1106 3.176 35.7026 4.056C36.2946 4.936 36.5906 5.92 36.5906 7.008C36.5906 8.8 36.0306 10.208 34.9106 11.232C33.7906 12.24 31.8866 12.744 29.1986 12.744H26.0306V17.352C26.0306 17.528 25.9666 17.68 25.8386 17.808C25.7106 17.936 25.5586 18 25.3826 18H20.2226C20.0466 18 19.8946 17.936 19.7666 17.808C19.6386 17.68 19.5746 17.528 19.5746 17.352V1.848C19.5746 1.672 19.6386 1.52 19.7666 1.392C19.8946 1.264 20.0466 1.2 20.2226 1.2H29.1986ZM29.1026 8.304C29.4866 8.304 29.7906 8.192 30.0146 7.968C30.2386 7.728 30.3506 7.416 30.3506 7.032C30.3506 6.632 30.2386 6.304 30.0146 6.048C29.7906 5.792 29.4866 5.664 29.1026 5.664H26.0546V8.304H29.1026ZM52.5172 13.32C52.6932 13.32 52.8452 13.384 52.9732 13.512C53.1012 13.64 53.1652 13.792 53.1652 13.968V17.352C53.1652 17.528 53.1012 17.68 52.9732 17.808C52.8452 17.936 52.6932 18 52.5172 18H37.3492C37.1732 18 37.0212 17.936 36.8932 17.808C36.7652 17.68 36.7012 17.528 36.7012 17.352V1.848C36.7012 1.672 36.7652 1.52 36.8932 1.392C37.0212 1.264 37.1732 1.2 37.3492 1.2H52.2772C52.4532 1.2 52.6052 1.264 52.7332 1.392C52.8612 1.52 52.9252 1.672 52.9252 1.848V5.232C52.9252 5.408 52.8612 5.56 52.7332 5.688C52.6052 5.816 52.4532 5.88 52.2772 5.88H42.9412V7.392H50.9572C51.1332 7.392 51.2852 7.456 51.4132 7.584C51.5412 7.712 51.6052 7.864 51.6052 8.04V11.16C51.6052 11.336 51.5412 11.488 51.4132 11.616C51.2852 11.744 51.1332 11.808 50.9572 11.808H42.9412V13.32H52.5172ZM70.7479 13.32C70.9239 13.32 71.0759 13.384 71.2039 13.512C71.3319 13.64 71.3959 13.792 71.3959 13.968V17.352C71.3959 17.528 71.3319 17.68 71.2039 17.808C71.0759 17.936 70.9239 18 70.7479 18H55.5799C55.4039 18 55.2519 17.936 55.1239 17.808C54.9959 17.68 54.9319 17.528 54.9319 17.352V1.848C54.9319 1.672 54.9959 1.52 55.1239 1.392C55.2519 1.264 55.4039 1.2 55.5799 1.2H70.5079C70.6839 1.2 70.8359 1.264 70.9639 1.392C71.0919 1.52 71.1559 1.672 71.1559 1.848V5.232C71.1559 5.408 71.0919 5.56 70.9639 5.688C70.8359 5.816 70.6839 5.88 70.5079 5.88H61.1719V7.392H69.1879C69.3639 7.392 69.5159 7.456 69.6439 7.584C69.7719 7.712 69.8359 7.864 69.8359 8.04V11.16C69.8359 11.336 69.7719 11.488 69.6439 11.616C69.5159 11.744 69.3639 11.808 69.1879 11.808H61.1719V13.32H70.7479ZM80.8905 1.2C83.5945 1.2 85.7545 1.784 87.3705 2.952C89.0025 4.12 89.8185 5.928 89.8185 8.376V10.824C89.8185 13.32 89.0105 15.144 87.3945 16.296C85.7945 17.432 83.6265 18 80.8905 18H73.2345C73.0585 18 72.9065 17.936 72.7785 17.808C72.6505 17.68 72.5865 17.528 72.5865 17.352V1.848C72.5865 1.672 72.6505 1.52 72.7785 1.392C72.9065 1.264 73.0585 1.2 73.2345 1.2H80.8905ZM81.0105 13.32C81.7625 13.32 82.3545 13.144 82.7865 12.792C83.2345 12.424 83.4585 11.912 83.4585 11.256V7.944C83.4585 7.288 83.2345 6.784 82.7865 6.432C82.3545 6.064 81.7625 5.88 81.0105 5.88H78.8265V13.32H81.0105ZM13.344 21.848C13.584 21.416 13.928 21.2 14.376 21.2H18.768C18.944 21.2 19.096 21.264 19.224 21.392C19.352 21.52 19.416 21.672 19.416 21.848V37.352C19.416 37.528 19.352 37.68 19.224 37.808C19.096 37.936 18.944 38 18.768 38H14.424C14.248 38 14.096 37.936 13.968 37.808C13.84 37.68 13.776 37.528 13.776 37.352V29.912L12.024 33.368C11.976 33.48 11.864 33.608 11.688 33.752C11.512 33.896 11.288 33.968 11.016 33.968H9.384C9.112 33.968 8.888 33.896 8.712 33.752C8.536 33.608 8.424 33.48 8.376 33.368L6.624 29.912V37.352C6.624 37.528 6.56 37.68 6.432 37.808C6.304 37.936 6.152 38 5.976 38H1.632C1.456 38 1.304 37.936 1.176 37.808C1.048 37.68 0.984 37.528 0.984 37.352V21.848C0.984 21.672 1.048 21.52 1.176 21.392C1.304 21.264 1.456 21.2 1.632 21.2H6.024C6.472 21.2 6.816 21.416 7.056 21.848L10.2 27.608L13.344 21.848ZM24.4946 37.184C24.2866 37.728 23.9266 38 23.4146 38H18.8786C18.7346 38 18.6066 37.952 18.4946 37.856C18.3986 37.744 18.3506 37.616 18.3506 37.472L18.3746 37.328L23.6066 21.992C23.6706 21.784 23.7906 21.6 23.9666 21.44C24.1426 21.28 24.3826 21.2 24.6866 21.2H31.3586C31.6626 21.2 31.9026 21.28 32.0786 21.44C32.2546 21.6 32.3746 21.784 32.4386 21.992L37.6706 37.328L37.6946 37.472C37.6946 37.616 37.6386 37.744 37.5266 37.856C37.4306 37.952 37.3106 38 37.1666 38H32.6306C32.1186 38 31.7586 37.728 31.5506 37.184L30.9506 35.504H25.0946L24.4946 37.184ZM28.0226 25.832L26.3186 30.824H29.7266L28.0226 25.832ZM53.5013 21.2C53.6773 21.2 53.8293 21.264 53.9573 21.392C54.0853 21.52 54.1493 21.672 54.1493 21.848V25.712C54.1493 25.888 54.0853 26.04 53.9573 26.168C53.8293 26.296 53.6773 26.36 53.5013 26.36H48.3413V37.352C48.3413 37.528 48.2773 37.68 48.1493 37.808C48.0213 37.936 47.8693 38 47.6933 38H42.7493C42.5733 38 42.4213 37.936 42.2933 37.808C42.1653 37.68 42.1013 37.528 42.1013 37.352V26.36H36.9413C36.7653 26.36 36.6133 26.296 36.4853 26.168C36.3573 26.04 36.2933 25.888 36.2933 25.712V21.848C36.2933 21.672 36.3573 21.52 36.4853 21.392C36.6133 21.264 36.7653 21.2 36.9413 21.2H53.5013ZM60.7639 31.52C60.7639 32.176 60.9799 32.68 61.4119 33.032C61.8599 33.384 62.4599 33.56 63.2119 33.56C63.8839 33.56 64.3799 33.448 64.6999 33.224C65.0199 33 65.2919 32.664 65.5159 32.216C65.7239 31.8 66.0039 31.592 66.3559 31.592H71.5399C71.6839 31.592 71.8039 31.648 71.8999 31.76C72.0119 31.856 72.0679 31.976 72.0679 32.12C72.0679 33.096 71.7399 34.056 71.0839 35C70.4279 35.928 69.4279 36.704 68.0839 37.328C66.7559 37.936 65.1319 38.24 63.2119 38.24C61.4999 38.24 59.9719 37.984 58.6279 37.472C57.2999 36.944 56.2439 36.144 55.4599 35.072C54.6759 33.984 54.2839 32.632 54.2839 31.016V28.184C54.2839 26.568 54.6759 25.224 55.4599 24.152C56.2439 23.064 57.2999 22.264 58.6279 21.752C59.9719 21.224 61.4999 20.96 63.2119 20.96C65.1319 20.96 66.7559 21.272 68.0839 21.896C69.4279 22.504 70.4279 23.28 71.0839 24.224C71.7399 25.152 72.0679 26.104 72.0679 27.08C72.0679 27.224 72.0119 27.352 71.8999 27.464C71.8039 27.56 71.6839 27.608 71.5399 27.608H66.3559C66.0039 27.608 65.7239 27.4 65.5159 26.984C65.2919 26.536 65.0199 26.2 64.6999 25.976C64.3799 25.752 63.8839 25.64 63.2119 25.64C62.4599 25.64 61.8599 25.816 61.4119 26.168C60.9799 26.52 60.7639 27.024 60.7639 27.68V31.52ZM88.7145 21.2C88.8905 21.2 89.0425 21.264 89.1705 21.392C89.2985 21.52 89.3625 21.672 89.3625 21.848V37.352C89.3625 37.528 89.2985 37.68 89.1705 37.808C89.0425 37.936 88.8905 38 88.7145 38H83.7705C83.5945 38 83.4425 37.936 83.3145 37.808C83.1865 37.68 83.1225 37.528 83.1225 37.352V32.24H78.3225V37.352C78.3225 37.528 78.2585 37.68 78.1305 37.808C78.0025 37.936 77.8505 38 77.6745 38H72.7305C72.5545 38 72.4025 37.944 72.2745 37.832C72.1465 37.704 72.0825 37.544 72.0825 37.352V21.848C72.0825 21.672 72.1465 21.52 72.2745 21.392C72.4025 21.264 72.5545 21.2 72.7305 21.2H77.6745C77.8505 21.2 78.0025 21.264 78.1305 21.392C78.2585 21.52 78.3225 21.672 78.3225 21.848V26.768H83.1225V21.848C83.1225 21.672 83.1865 21.52 83.3145 21.392C83.4425 21.264 83.5945 21.2 83.7705 21.2H88.7145ZM101.737 33.08H106.081C106.257 33.08 106.409 33.144 106.537 33.272C106.665 33.4 106.729 33.552 106.729 33.728V37.352C106.729 37.528 106.665 37.68 106.537 37.808C106.409 37.936 106.257 38 106.081 38H90.8651C90.6891 38 90.5371 37.936 90.4091 37.808C90.2811 37.68 90.2171 37.528 90.2171 37.352V33.728C90.2171 33.552 90.2811 33.4 90.4091 33.272C90.5371 33.144 90.6891 33.08 90.8651 33.08H95.2571V26.12H90.8651C90.6891 26.12 90.5371 26.056 90.4091 25.928C90.2811 25.8 90.2171 25.648 90.2171 25.472V21.848C90.2171 21.672 90.2811 21.52 90.4091 21.392C90.5371 21.264 90.6891 21.2 90.8651 21.2H106.081C106.257 21.2 106.409 21.264 106.537 21.392C106.665 21.52 106.729 21.672 106.729 21.848V25.472C106.729 25.648 106.665 25.8 106.537 25.928C106.409 26.056 106.257 26.12 106.081 26.12H101.737V33.08ZM123.736 21.2C123.912 21.2 124.064 21.264 124.192 21.392C124.32 21.52 124.384 21.672 124.384 21.848V37.352C124.384 37.528 124.32 37.68 124.192 37.808C124.064 37.936 123.912 38 123.736 38H119.872C119.488 38 119.168 37.832 118.912 37.496L113.68 30.824V37.352C113.68 37.528 113.616 37.68 113.488 37.808C113.36 37.936 113.208 38 113.032 38H108.568C108.392 38 108.24 37.936 108.112 37.808C107.984 37.68 107.92 37.528 107.92 37.352V21.848C107.92 21.672 107.984 21.52 108.112 21.392C108.24 21.264 108.392 21.2 108.568 21.2H112.456C112.84 21.2 113.152 21.36 113.392 21.68L118.624 28.904V21.848C118.624 21.672 118.688 21.52 118.816 21.392C118.944 21.264 119.096 21.2 119.272 21.2H123.736ZM142.614 27.872C142.79 27.872 142.942 27.936 143.07 28.064C143.198 28.192 143.262 28.344 143.262 28.52V31.064C143.262 33.496 142.43 35.304 140.766 36.488C139.118 37.656 136.934 38.24 134.214 38.24C131.494 38.24 129.302 37.656 127.638 36.488C125.99 35.304 125.166 33.48 125.166 31.016V28.184C125.166 26.552 125.566 25.2 126.366 24.128C127.166 23.04 128.246 22.24 129.606 21.728C130.966 21.216 132.502 20.96 134.214 20.96C136.262 20.96 137.95 21.296 139.278 21.968C140.606 22.64 141.566 23.4 142.158 24.248C142.766 25.096 143.07 25.784 143.07 26.312C143.07 26.456 143.014 26.584 142.902 26.696C142.806 26.792 142.686 26.84 142.542 26.84H137.118C136.798 26.84 136.566 26.752 136.422 26.576C135.926 25.952 135.19 25.64 134.214 25.64C133.478 25.64 132.862 25.808 132.366 26.144C131.886 26.48 131.646 26.912 131.646 27.44V31.52C131.646 32.16 131.886 32.664 132.366 33.032C132.846 33.384 133.462 33.56 134.214 33.56C135.206 33.56 135.934 33.392 136.398 33.056C136.878 32.704 137.126 32.296 137.142 31.832H135.654C135.478 31.832 135.326 31.768 135.198 31.64C135.07 31.512 135.006 31.36 135.006 31.184V28.52C135.006 28.344 135.07 28.192 135.198 28.064C135.326 27.936 135.478 27.872 135.654 27.872H142.614Z" fill="white"/>
</svg>
